<svg width="18" height="18" viewBox="0 0 18 18" fill="none" xmlns="http://www.w3.org/2000/svg">
<path d="M17.4711 10.8242V16.8C17.4711 16.9468 17.3452 17.0726 17.1985 17.0726H14.1162C13.9694 17.0726 13.8436 16.9468 13.8436 16.8V11.2435C13.8436 9.77579 13.3194 8.76934 11.9985 8.76934C10.992 8.76934 10.4049 9.44031 10.1323 10.0903C10.0275 10.321 10.0065 10.6564 10.0065 10.971V16.8C10.0065 16.9468 9.88073 17.0726 9.73396 17.0726H6.67267C6.52589 17.0726 6.40009 16.9468 6.40009 16.8C6.40009 15.3113 6.44202 8.11934 6.40009 6.44192C6.40009 6.29514 6.52589 6.16934 6.67267 6.16934H9.75492C9.9017 6.16934 10.0275 6.29514 10.0275 6.44192V7.72095C10.0275 7.74192 10.0065 7.74192 10.0065 7.76289H10.0275V7.72095C10.5098 6.98708 11.3694 5.91772 13.2985 5.91772C15.6888 5.91772 17.4711 7.49031 17.4711 10.8242ZM1.03235 17.0935H4.1146C4.26138 17.0935 4.38718 16.9677 4.38718 16.821V6.44192C4.38718 6.29514 4.26138 6.16934 4.1146 6.16934H1.03235C0.885572 6.16934 0.759766 6.29514 0.759766 6.44192V16.821C0.780733 16.9677 0.885572 17.0935 1.03235 17.0935Z" fill="white"/>
<path d="M2.4793 4.80649C3.55625 4.80649 4.4293 3.93345 4.4293 2.85649C4.4293 1.77954 3.55625 0.906494 2.4793 0.906494C1.40234 0.906494 0.529297 1.77954 0.529297 2.85649C0.529297 3.93345 1.40234 4.80649 2.4793 4.80649Z" fill="white"/>
</svg>
