<svg width="39" height="17" viewBox="0 0 39 17" fill="none" xmlns="http://www.w3.org/2000/svg">
<path d="M12 5.65415C11.5486 5.85103 11.0712 5.98187 10.5825 6.04265C11.0975 5.73712 11.4826 5.25332 11.6648 4.6829C11.1825 4.9689 10.6549 5.17031 10.1047 5.2784C9.76743 4.91823 9.32959 4.66784 8.84812 4.55975C8.36664 4.45165 7.86379 4.49086 7.40488 4.67227C6.94598 4.85368 6.55224 5.16891 6.27482 5.577C5.9974 5.9851 5.84912 6.46719 5.84925 6.96065C5.84925 7.15565 5.86575 7.34315 5.90625 7.52165C4.92756 7.47367 3.97002 7.21966 3.09623 6.77624C2.22243 6.33282 1.45207 5.70996 0.8355 4.9484C0.519614 5.48979 0.421957 6.13123 0.562412 6.7421C0.702868 7.35297 1.07088 7.88734 1.5915 8.2364C1.20207 8.22596 0.820855 8.12204 0.48 7.9334V7.9604C0.480652 8.52847 0.676999 9.07898 1.03599 9.51925C1.39498 9.95951 1.89469 10.2627 2.451 10.3777C2.24054 10.4331 2.02364 10.4604 1.806 10.4587C1.64969 10.4614 1.49354 10.4473 1.34025 10.4167C1.49921 10.9049 1.80562 11.3319 2.2173 11.6388C2.62897 11.9457 3.12567 12.1175 3.639 12.1304C2.7682 12.8114 1.69423 13.1809 0.58875 13.1797C0.387 13.1797 0.1935 13.1707 0 13.1459C1.12491 13.8708 2.43576 14.2543 3.774 14.2499C8.301 14.2499 10.776 10.4999 10.776 7.2494C10.776 7.14065 10.7722 7.03565 10.767 6.9314C11.2522 6.58414 11.6701 6.15131 12 5.65415V5.65415Z" fill="#5E5C6C"/>
<path d="M36.0379 9.69268V13.5999C36.0379 13.6959 35.9557 13.7782 35.8597 13.7782H33.8444C33.7484 13.7782 33.6662 13.6959 33.6662 13.5999V9.96688C33.6662 9.0072 33.3234 8.34914 32.4597 8.34914C31.8016 8.34914 31.4178 8.78785 31.2396 9.21285C31.171 9.36365 31.1573 9.58301 31.1573 9.78865V13.5999C31.1573 13.6959 31.075 13.7782 30.9791 13.7782H28.9775C28.8815 13.7782 28.7992 13.6959 28.7992 13.5999C28.7992 12.6266 28.8266 7.92414 28.7992 6.82736C28.7992 6.73139 28.8815 6.64914 28.9775 6.64914H30.9928C31.0887 6.64914 31.171 6.73139 31.171 6.82736V7.66365C31.171 7.67736 31.1573 7.67736 31.1573 7.69107H31.171V7.66365C31.4863 7.18381 32.0484 6.48462 33.3097 6.48462C34.8726 6.48462 36.0379 7.51284 36.0379 9.69268ZM25.2896 13.7919H27.3049C27.4008 13.7919 27.4831 13.7096 27.4831 13.6137V6.82736C27.4831 6.73139 27.4008 6.64914 27.3049 6.64914H25.2896C25.1936 6.64914 25.1113 6.73139 25.1113 6.82736V13.6137C25.125 13.7096 25.1936 13.7919 25.2896 13.7919Z" fill="#333033"/>
<path d="M26.2359 5.75801C26.9401 5.75801 27.5109 5.18717 27.5109 4.48301C27.5109 3.77884 26.9401 3.20801 26.2359 3.20801C25.5318 3.20801 24.9609 3.77884 24.9609 4.48301C24.9609 5.18717 25.5318 5.75801 26.2359 5.75801Z" fill="#333033"/>
</svg>
